/* XPM */
static char * bar_xpm[] = {
"14 28 2 1",
" 	c #FFFFFE",
".	c #FFFFFF",
"              ",
"          ... ",
"          ... ",
"          ..  ",
"         ...  ",
"         ..   ",
"         ..   ",
"        ...   ",
"        ..    ",
"       ...    ",
"       ...    ",
"       ..     ",
"      ...     ",
"      ..      ",
"      ..      ",
"     ...      ",
"     ..       ",
"    ...       ",
"    ...       ",
"    ..        ",
"   ...        ",
"   ..         ",
"   ..         ",
"  ...         ",
"  ..          ",
" ...          ",
" ...          ",
"              "};
