/* XPM */
static char * mouse_xpm[] = {
"32 32 187 2",
"  	c #FFFFFE",
". 	c #181B1E",
"+ 	c #0A0C0D",
"@ 	c #0F1011",
"# 	c #181A1D",
"$ 	c #4A5763",
"% 	c #BED3E6",
"& 	c #CED7DF",
"* 	c #222425",
"= 	c #0C0D0F",
"- 	c #9FBDD9",
"; 	c #E6F2FC",
"> 	c #EBF6FF",
", 	c #A2AAB0",
"' 	c #141517",
") 	c #15181C",
"! 	c #A0BFDB",
"~ 	c #B7C0C7",
"{ 	c #151517",
"] 	c #1A1E21",
"^ 	c #ABC2D9",
"/ 	c #333B41",
"( 	c #050606",
"_ 	c #101316",
": 	c #414A53",
"< 	c #232527",
"[ 	c #0F1010",
"} 	c #141619",
"| 	c #1D2123",
"1 	c #141617",
"2 	c #070809",
"3 	c #8CA7C0",
"4 	c #DFEDF9",
"5 	c #EAF5FE",
"6 	c #3E4043",
"7 	c #060707",
"8 	c #475460",
"9 	c #97A7B5",
"0 	c #757A80",
"a 	c #0C0C0D",
"b 	c #2C3237",
"c 	c #A8C5DF",
"d 	c #93999F",
"e 	c #282F34",
"f 	c #A9C6E0",
"g 	c #4B4E51",
"h 	c #0D0E10",
"i 	c #424E58",
"j 	c #40474D",
"k 	c #0B0C0C",
"l 	c #31383E",
"m 	c #AAC7E0",
"n 	c #99A0A6",
"o 	c #434E59",
"p 	c #B4CEE4",
"q 	c #7A8085",
"r 	c #050506",
"s 	c #14171A",
"t 	c #394046",
"u 	c #101011",
"v 	c #0E1013",
"w 	c #B3CDE4",
"x 	c #AEB6BC",
"y 	c #444F5A",
"z 	c #7A8185",
"A 	c #1C2225",
"B 	c #A2BED6",
"C 	c #E8F3FE",
"D 	c #D6E0E8",
"E 	c #343C44",
"F 	c #CBDFF0",
"G 	c #323437",
"H 	c #9BA2A8",
"I 	c #4E575F",
"J 	c #C9DDEF",
"K 	c #505F6D",
"L 	c #BBD3E8",
"M 	c #4A4E51",
"N 	c #262C31",
"O 	c #C5DBED",
"P 	c #91979D",
"Q 	c #BEC7CE",
"R 	c #3C4247",
"S 	c #C4D9EC",
"T 	c #DFE9F2",
"U 	c #7C8287",
"V 	c #5C6B78",
"W 	c #CADDEF",
"X 	c #54595C",
"Y 	c #0F1113",
"Z 	c #8FABC4",
"` 	c #ADC8E1",
" .	c #B8C1C8",
"..	c #1A1D20",
"+.	c #E5F0F9",
"@.	c #D4DEE6",
"#.	c #D5DFE7",
"$.	c #171A1B",
"%.	c #627586",
"&.	c #E2EFFA",
"*.	c #D2DCE4",
"=.	c #4B5864",
"-.	c #D5E6F4",
";.	c #3E4A53",
">.	c #CFE1F1",
",.	c #A3C2DD",
"'.	c #353E45",
").	c #CADEEF",
"!.	c #E2ECF5",
"~.	c #585D61",
"{.	c #DCEBF8",
"].	c #CCD5DD",
"^.	c #B1B9C0",
"/.	c #CFD9E1",
"(.	c #ADB5BC",
"_.	c #D3DDE5",
":.	c #AAB2B8",
"<.	c #4B4F53",
"[.	c #252A2E",
"}.	c #C3D9EC",
"|.	c #949BA1",
"1.	c #62666A",
"2.	c #9DA4AA",
"3.	c #595E61",
"4.	c #A5ADB3",
"5.	c #525659",
"6.	c #313335",
"7.	c #0A0B0C",
"8.	c #9FBEDA",
"9.	c #B9D1E7",
"0.	c #18191A",
"a.	c #141618",
"b.	c #86A0B7",
"c.	c #A7C4DF",
"d.	c #0D0D0E",
"e.	c #101111",
"f.	c #566574",
"g.	c #DAEAF7",
"h.	c #8B9197",
"i.	c #131515",
"j.	c #9DBCD8",
"k.	c #BDD4E9",
"l.	c #898F94",
"m.	c #5E6F7F",
"n.	c #A2C1DC",
"o.	c #DEECF9",
"p.	c #C5CED6",
"q.	c #A7AFB5",
"r.	c #CAD3DB",
"s.	c #A3ABB1",
"t.	c #CED8E0",
"u.	c #9FA6AC",
"v.	c #C6D0D7",
"w.	c #0E1112",
"x.	c #86A0B8",
"y.	c #B1CBE3",
"z.	c #EAF5FF",
"A.	c #D7E1E9",
"B.	c #141415",
"C.	c #161A1C",
"D.	c #88A2BA",
"E.	c #C1D7EB",
"F.	c #323436",
"G.	c #647789",
"H.	c #B8D0E4",
"I.	c #E8F3FD",
"J.	c #CDD6DE",
"K.	c #222426",
"L.	c #0D0F0F",
"M.	c #191D1F",
"N.	c #54626F",
"O.	c #9AA9B6",
"P.	c #D2DEE7",
"Q.	c #E9F4FD",
"R.	c #D9E4EC",
"S.	c #B4BCC3",
"T.	c #55595C",
"U.	c #090A0A",
"V.	c #111315",
"W.	c #1A1E20",
"X.	c #111314",
"Y.	c #070808",
"Z.	c #09090A",
"`.	c #090909",
" +	c #080909",
".+	c #060606",
"++	c #111213",
"                    . + @                                       ",
"                  # $ % & *                                     ",
"                  = - ; > , '                                   ",
"                  ) ! > > ~ {                                   ",
"                  ] ! > > ~ {                                   ",
"                  ^ ! > > ~ {                                   ",
"                  / ! > > ~ {                                   ",
"                  ) ! > > ~ {                                   ",
"                  ) ! > > ~ {                                   ",
"                  ) ! > > ~ ( _ : < [   } | 1                   ",
"                  ) ! > > ~ 2 3 4 5 6 7 8 9 0 a                 ",
"                  ) ! > > ~ b c > > d e f > > g                 ",
"        h i j k   ) ! > > ~ l m > > n o p > > q r s t u         ",
"      v 3 w > x 7 ) ! > > ~ l m > > n y p > > z A B C D [       ",
"      E ! F > > G ) ! > > ~ l m > > H I J > > z K L > > M       ",
"      N ! O > > P . ! > > Q R S > > T & > > > U V W > > X       ",
"      Y Z ` > >  ...! > > > +.> > > > > > > > @.#.> > > X       ",
"      $.%.! &.> *...! > > > > > > > > > > > > > > > > > X       ",
"        =.! -.> D ..! > > > > > > > > > > > > > > > > > X       ",
"        ;.! >.> D ..,.> > > > > > > > > > > > > > > > > X       ",
"        '.! ).> !.~.{.> > ].^.> /.(.> _.:.> > > > > > > <.      ",
"        [.! }.> > > > > > |.1.> 2.3.> 4.5.> > > > > > > 6.      ",
"        7.8.9.> > > > > > |.1.> 2.3.> 4.5.> > > > > > > 0.      ",
"        a.b.c.> > > > > > |.1.> 2.3.> 4.5.> > > > > > _.d.      ",
"        e.f.! g.> > > > > |.1.> 2.3.> 4.5.> > > > > > h.i.      ",
"          s j.k.> > > > > |.1.> 2.3.> 4.5.> > > > > > l.        ",
"          a.m.n.o.> > > > p.q.> r.s.> t.u.> > > > > v.          ",
"            w.x.y.z.> > > > > > > > > > > > > > > A.B.          ",
"              C.D.E.> > > > > > > > > > > > > > !.F.            ",
"                Y G.H.I.> > > > > > > > > > > J.K.L.            ",
"                  M.C.N.O.P.Q.> > > > > R.S.T.U.                ",
"                      V.W.X.Y.Z.`. + +.+Y.++                    "};
