/* XPM */
static char * num1_xpm[] = {
"15 24 2 1",
" 	c #FFFFFE",
".	c #FFFFFF",
"               ",
"..... .....    ",
"..... .....    ",
"..... .....    ",
" ...  .....    ",
"      .....    ",
"      .....    ",
"      .....    ",
"      .....    ",
"      .....    ",
"      .....    ",
"      .....    ",
"      .....    ",
"      .....    ",
"      .....    ",
"      .....    ",
"      .....    ",
"      .....    ",
"      .....    ",
"      .....    ",
" .... ........ ",
"..... ........ ",
"..... ........ ",
"..... ........ "};
