/* XPM */
static char * num2_xpm[] = {
"16 24 2 1",
" 	c #FFFFFE",
".	c #FFFFFF",
"                ",
" ........  .... ",
".........  .....",
".........  .....",
".....      .....",
".....      .....",
".....      .....",
".....      .....",
"           .....",
"           .....",
"           .....",
"          ......",
" ...... ........",
"....... ........",
"....... ....... ",
"......          ",
"......          ",
"......          ",
"......          ",
"......          ",
"...... ........ ",
"...... .........",
"...... .........",
" ..... ........."};
