/* XPM */
static char * num3_xpm[] = {
"16 24 2 1",
" 	c #FFFFFE",
".	c #FFFFFF",
"                ",
" ........ ..... ",
"......... ..... ",
"......... ......",
".....     ......",
".....     ......",
".....     ......",
".....     ......",
"          ......",
"          ......",
"          ..... ",
"      ......... ",
"      ......... ",
"      ..........",
"          ......",
"          ......",
" ....     ......",
".....     ......",
".....     ......",
".....     ......",
".....     ......",
"......... ......",
"......... ......",
" ........ ..... "};
