/* XPM */
static char * num4_xpm[] = {
"18 24 2 1",
" 	c #FFFFFE",
".	c #FFFFFF",
"                  ",
" .....    .....   ",
" .....    .....   ",
" .....    .....   ",
" .....    .....   ",
" .....    .....   ",
" .....    .....   ",
" .....    .....   ",
" .....    .....   ",
" .....    .....   ",
" .....    .....   ",
" .......  ....... ",
" ........ ........",
" ........ ........",
"          .....   ",
"          .....   ",
"          .....   ",
"          .....   ",
"          .....   ",
"          .....   ",
"          .....   ",
"          .....   ",
"          .....   ",
"          .....   "};
