/* XPM */
static char * num5_xpm[] = {
"17 25 2 1",
" 	c #FFFFFE",
".	c #FFFFFF",
"                 ",
"  ..... .........",
" ...... .........",
" ...... .........",
" ...... ........ ",
" ......          ",
" ......          ",
" ......          ",
" ......          ",
" ......          ",
" .......  ...... ",
" ....... ........",
"  ...... ........",
"            .....",
"            .....",
"            .....",
"  ....      .....",
" .....      .....",
" .....      .....",
" .....      .....",
" .....      .....",
" .........  .....",
" .........  .....",
"  ........  .... ",
"                 "};
