/* XPM */
static char * num6_xpm[] = {
"17 24 2 1",
" 	c #FFFFFE",
".	c #FFFFFF",
"                 ",
" ..... ........  ",
"...... ......... ",
"...... ......... ",
"......     ..... ",
"......     ..... ",
"......     ..... ",
"......     ..... ",
"......           ",
"......           ",
"......           ",
"...... ........  ",
"...... ......... ",
"...... ......... ",
"......     ..... ",
"......     ..... ",
"......     ..... ",
"......     ..... ",
"......     ..... ",
"......     ..... ",
"......     ..... ",
".......... ..... ",
" ......... ..... ",
" ......... ....  "};
