/* XPM */
static char * num8_xpm[] = {
"16 24 2 1",
" 	c #FFFFFE",
".	c #FFFFFF",
"                ",
" ..... ........ ",
" ..... ........ ",
"...... .........",
"......    ......",
"......    ......",
"......    ......",
"......    ......",
"......    ......",
"......    ..... ",
".......         ",
" ......         ",
"  ..... ....... ",
"        ....... ",
"   ...   .......",
" .....    ......",
"......    ......",
"......    ......",
"......    ......",
"......    ......",
"......    ......",
"......... ......",
" ........ ..... ",
" ........ ..... "};
