/* XPM */
static char * num9_xpm[] = {
"16 25 2 1",
" 	c #FFFFFE",
".	c #FFFFFF",
"                ",
" .... ......... ",
"..... ......... ",
"..... ..........",
".....     ......",
".....     ......",
".....     ......",
".....     ......",
".....     ......",
".....     ......",
".....     ......",
"......... ......",
"......... ......",
" ........ ......",
"          ......",
"          ......",
"          ......",
".....     ......",
".....     ......",
".....     ......",
".....     ......",
"......... ......",
"......... ......",
" ........ ..... ",
"                "};
