/* XPM */
static char * p1_left_xpm[] = {
"20 20 46 1",
" 	c #7D0000",
".	c #7B0707",
"+	c #7C0606",
"@	c #6D3838",
"#	c #6C3E3E",
"$	c #750000",
"%	c #7B0606",
"&	c #645D5D",
"*	c #7A0C0C",
"=	c #650000",
"-	c #2F1010",
";	c #101010",
">	c #000000",
",	c #0F0000",
"'	c #4E0000",
")	c #6D3E3E",
"!	c #722B2B",
"~	c #CFCFCF",
"{	c #DFDFDF",
"]	c #6D0000",
"^	c #703131",
"/	c #2F0000",
"(	c #606060",
"_	c #6F6F6F",
":	c #100000",
"<	c #694A4A",
"[	c #751F1F",
"}	c #560000",
"|	c #3E0000",
"1	c #760000",
"2	c #732525",
"3	c #665656",
"4	c #712B2B",
"5	c #781212",
"6	c #6E3838",
"7	c #1F0000",
"8	c #070000",
"9	c #781313",
"0	c #6E3737",
"a	c #7F7F7F",
"b	c #370000",
"c	c #2E0000",
"d	c #460000",
"e	c #665757",
"f	c #771818",
"g	c #6D3D3D",
"                    ",
"        .+          ",
"        @#          ",
"    $$  %&*         ",
"  =-;>,' )!         ",
"  ,~{>>>]^^         ",
"  /(_>>: <[         ",
"   }||'123          ",
"        45          ",
"                    ",
"                    ",
"        .           ",
"        #6          ",
"  =78>7}%&9         ",
"  ,~{>>>10!         ",
"  7a_>>: ^^         ",
"   'bcd1 ef         ",
"        4g          ",
"        *+          ",
"                    "};
