/* XPM */
static char * p1_right_xpm[] = {
"20 20 46 1",
" 	c #7D0000",
".	c #7B0707",
"+	c #790D0D",
"@	c #6C3E3E",
"#	c #722B2B",
"$	c #761919",
"%	c #665656",
"&	c #750000",
"*	c #460000",
"=	c #2E0000",
"-	c #360000",
";	c #4E0000",
">	c #703131",
",	c #0F0000",
"'	c #000000",
")	c #707070",
"!	c #808080",
"~	c #1F0000",
"{	c #712B2B",
"]	c #6F3737",
"^	c #DFDFDF",
"/	c #CFCFCF",
"(	c #100000",
"_	c #781212",
":	c #655D5D",
"<	c #7C0606",
"[	c #560000",
"}	c #080000",
"|	c #660000",
"1	c #6E3737",
"2	c #6D3D3D",
"3	c #771313",
"4	c #665757",
"5	c #732525",
"6	c #3E0000",
"7	c #741F1F",
"8	c #6A4A4A",
"9	c #5F5F5F",
"0	c #2F0000",
"a	c #6D0000",
"b	c #6D3E3E",
"c	c #101010",
"d	c #2F1010",
"e	c #7A0C0C",
"f	c #760000",
"g	c #7B0606",
"                    ",
"          .+        ",
"          @#        ",
"         $% &*=-;   ",
"         >> ,'')!~  ",
"         {]&'''^/(  ",
"         _:<[~'}~|  ",
"          12        ",
"           <        ",
"                    ",
"                    ",
"          3#        ",
"          45&;66[   ",
"         78 ,'')90  ",
"         >>a'''^/(  ",
"         {b ;('cd|  ",
"         e:<  ff    ",
"          @]        ",
"          g<        ",
"                    "};
