/* XPM */
static char * p1_up_xpm[] = {
"20 20 45 1",
" 	c #7D0000",
".	c #1F0000",
"+	c #0F0000",
"@	c #660000",
"#	c #2F0000",
"$	c #4E0000",
"%	c #808080",
"&	c #CFCFCF",
"*	c #560000",
"=	c #606060",
"-	c #2F1010",
";	c #360000",
">	c #707070",
",	c #DFDFDF",
"'	c #080000",
")	c #3E0000",
"!	c #101010",
"~	c #760000",
"{	c #2E0000",
"]	c #000000",
"^	c #460000",
"/	c #100000",
"(	c #750000",
"_	c #790D0D",
":	c #712C2C",
"<	c #7B0707",
"[	c #6C3E3E",
"}	c #7C0606",
"|	c #732525",
"1	c #6D0000",
"2	c #6E3838",
"3	c #7B0606",
"4	c #6D3D3D",
"5	c #665757",
"6	c #703131",
"7	c #645D5D",
"8	c #6F3737",
"9	c #771313",
"0	c #665656",
"a	c #694A4A",
"b	c #771818",
"c	c #712B2B",
"d	c #791212",
"e	c #751E1E",
"f	c #7A0C0C",
"                    ",
"                    ",
"    .+@      #+@    ",
"   $%&.     *=&-    ",
"   ;>,'     )>,!~   ",
"   {]]]     )]]]~   ",
"   ^]].     $]]/    ",
"   (/]*     (/]$    ",
" _:  ~<[}  :| 1 <2} ",
" 3456278   90a6[74} ",
"   b6cd      e6cf   ",
"                    ",
"                    ",
"                    ",
"                    ",
"                    ",
"                    ",
"                    ",
"                    ",
"                    "};
