/* XPM */
static char * p2_left_xpm[] = {
"20 20 49 1",
" 	c #001B7C",
".	c #071F7B",
"+	c #061F7B",
"@	c #38446D",
"#	c #3E486C",
"$	c #001974",
"%	c #06207A",
"&	c #5D5F64",
"*	c #0C2479",
"=	c #001564",
"-	c #10172F",
";	c #101010",
">	c #000000",
",	c #00030F",
"'	c #00104D",
")	c #3E486D",
"!	c #2B3A72",
"~	c #CFCFCF",
"{	c #DFDFDF",
"]	c #00176C",
"^	c #313F70",
"/	c #000A2F",
"(	c #606060",
"_	c #6F6F6F",
":	c #000410",
"<	c #4A5169",
"[	c #1F3175",
"}	c #001255",
"|	c #000D3E",
"1	c #00114E",
"2	c #001A75",
"3	c #253673",
"4	c #565A66",
"5	c #2B3B71",
"6	c #122977",
"7	c #38436E",
"8	c #00061F",
"9	c #000107",
"0	c #001356",
"a	c #132878",
"b	c #37446E",
"c	c #00071F",
"d	c #7F7F7F",
"e	c #000C37",
"f	c #000A2E",
"g	c #000F46",
"h	c #575A66",
"i	c #182D76",
"j	c #3D486D",
"                    ",
"        .+          ",
"        @#          ",
"    $$  %&*         ",
"  =-;>,' )!         ",
"  ,~{>>>]^^         ",
"  /(_>>: <[         ",
"   }||1234          ",
"        56          ",
"                    ",
"                    ",
"        .           ",
"        #7          ",
"  =89>80%&a         ",
"  ,~{>>>2b!         ",
"  cd_>>: ^^         ",
"   1efg2 hi         ",
"        5j          ",
"        *+          ",
"                    "};
