/* XPM */
static char * p2_right_xpm[] = {
"20 20 48 1",
" 	c #001B7C",
".	c #071F7B",
"+	c #0D2479",
"@	c #3E486C",
"#	c #2B3A72",
"$	c #192D76",
"%	c #565A66",
"&	c #001974",
"*	c #000E45",
"=	c #00092E",
"-	c #000C36",
";	c #00104D",
">	c #313F70",
",	c #00030F",
"'	c #000000",
")	c #707070",
"!	c #808080",
"~	c #00071F",
"{	c #2B3B71",
"]	c #37436F",
"^	c #DFDFDF",
"/	c #CFCFCF",
"(	c #000410",
"_	c #122977",
":	c #5D5E65",
"<	c #061F7B",
"[	c #001255",
"}	c #000208",
"|	c #001665",
"1	c #37446E",
"2	c #3D486D",
"3	c #132977",
"4	c #575A66",
"5	c #253673",
"6	c #00114E",
"7	c #000D3E",
"8	c #001356",
"9	c #1F3274",
"0	c #4A516A",
"a	c #5F5F5F",
"b	c #000A2F",
"c	c #00176C",
"d	c #3E486D",
"e	c #101010",
"f	c #10172F",
"g	c #0C2479",
"h	c #001A75",
"i	c #06207A",
"                    ",
"          .+        ",
"          @#        ",
"         $% &*=-;   ",
"         >> ,'')!~  ",
"         {]&'''^/(  ",
"         _:<[~'}~|  ",
"          12        ",
"           <        ",
"                    ",
"                    ",
"          3#        ",
"          45&6778   ",
"         90 ,'')ab  ",
"         >>c'''^/(  ",
"         {d 6('ef|  ",
"         g:<  hh    ",
"          @]        ",
"          i<        ",
"                    "};
