/* XPM */
static char * p2_up_xpm[] = {
"20 20 49 1",
" 	c #001B7C",
".	c #00061F",
"+	c #00030F",
"@	c #001665",
"#	c #000A2F",
"$	c #00104D",
"%	c #808080",
"&	c #CFCFCF",
"*	c #00071F",
"=	c #001255",
"-	c #606060",
";	c #10172F",
">	c #000B36",
",	c #707070",
"'	c #DFDFDF",
")	c #000208",
"!	c #000D3E",
"~	c #101010",
"{	c #001A75",
"]	c #000A2E",
"^	c #000000",
"/	c #000E45",
"(	c #00114E",
"_	c #000410",
":	c #001974",
"<	c #001356",
"[	c #0D2479",
"}	c #2C3A71",
"|	c #071F7B",
"1	c #3E486C",
"2	c #061F7B",
"3	c #2C3B71",
"4	c #253673",
"5	c #00176C",
"6	c #38436E",
"7	c #06207A",
"8	c #3D486D",
"9	c #575A66",
"0	c #313F70",
"a	c #5D5F64",
"b	c #37436F",
"c	c #132977",
"d	c #565A66",
"e	c #4A5169",
"f	c #182D76",
"g	c #2B3B71",
"h	c #122878",
"i	c #1E3274",
"j	c #0C2479",
"                    ",
"                    ",
"    .+@      #+@    ",
"   $%&*     =-&;    ",
"   >,')     !,'~{   ",
"   ]^^^     !^^^{   ",
"   /^^*     (^^_    ",
"   :_^<     :_^(    ",
" [}  {|12  34 5 |62 ",
" 78906ab   cde01a82 ",
"   f0gh      i0gj   ",
"                    ",
"                    ",
"                    ",
"                    ",
"                    ",
"                    ",
"                    ",
"                    ",
"                    "};
