/* XPM */
static char * percentage_xpm[] = {
"20 24 2 1",
" 	c #FFFFFE",
".	c #FFFFFF",
"                    ",
" ... ...      ...   ",
" ..   ..      ..    ",
" ..   ..     ...    ",
" ..   ..     ..     ",
" ..   ..    ...     ",
" ..   ..    ..      ",
" ..   ..   ...      ",
" ..   ..   ..       ",
" ..   ..  ...       ",
" ... ...  ..        ",
"         ...        ",
"         ..         ",
"        ...         ",
"        ..  ... ... ",
"       ...  ..   .. ",
"       ..   ..   .. ",
"      ...   ..   .. ",
"      ..    ..   .. ",
"     ...    ..   .. ",
"    ...     ..   .. ",
"    ...     ..   .. ",
"   ...      ... ... ",
"   ...      ... ... "};
