/* XPM */
static char * player2_xpm[] = {
"20 20 44 1",
" 	c #001B7C",
".	c #0D2479",
"+	c #253673",
"@	c #323F70",
"#	c #1F3274",
"$	c #0C2479",
"%	c #2B3B71",
"&	c #192D76",
"*	c #37446E",
"=	c #5C5E64",
"-	c #38446E",
";	c #4A516A",
">	c #575A66",
",	c #132878",
"'	c #313F6F",
")	c #565A66",
"!	c #3E486C",
"~	c #06207A",
"{	c #00176C",
"]	c #2C3A71",
"^	c #3E486D",
"/	c #001A74",
"(	c #2C3B71",
"_	c #00114E",
":	c #000000",
"<	c #000310",
"[	c #001356",
"}	c #000517",
"|	c #001046",
"1	c #000E3E",
"2	c #000A2E",
"3	c #101010",
"4	c #DFDFDF",
"5	c #707070",
"6	c #000108",
"7	c #000C37",
"8	c #10172F",
"9	c #D0D0D0",
"0	c #5F5F5F",
"a	c #00071F",
"b	c #BFBFBF",
"c	c #001664",
"d	c #000410",
"e	c #000A2F",
"                    ",
"                    ",
"                    ",
"                    ",
"                    ",
"                    ",
"                    ",
"                    ",
"                    ",
"   .+@#      $%@&   ",
"  *=-@;>,   '=--)!~ ",
" ~-~ { +]  ~^~/  ($ ",
"    _:</     [:</   ",
"    <::_     }::|   ",
"    :::1     :::2   ",
"    3451     6457   ",
"    890[     ab5_   ",
"    cde      cda    ",
"                    ",
"                    "};
