/* XPM */
static char * player1_xpm[] = {
"20 20 42 1",
" 	c #7D0000",
".	c #790D0D",
"+	c #732525",
"@	c #703232",
"#	c #751F1F",
"$	c #7A0C0C",
"%	c #722B2B",
"&	c #761919",
"*	c #6E3737",
"=	c #645C5C",
"-	c #6E3838",
";	c #6A4A4A",
">	c #665757",
",	c #781313",
"'	c #703131",
")	c #665656",
"!	c #6D3E3E",
"~	c #7C0606",
"{	c #7B0606",
"]	c #6D0000",
"^	c #742525",
"/	c #722C2C",
"(	c #760000",
"_	c #4E0000",
":	c #000000",
"<	c #100000",
"[	c #560000",
"}	c #180000",
"|	c #470000",
"1	c #3F0000",
"2	c #2F0000",
"3	c #101010",
"4	c #DFDFDF",
"5	c #707070",
"6	c #080000",
"7	c #370000",
"8	c #2F1010",
"9	c #D0D0D0",
"0	c #5F5F5F",
"a	c #200000",
"b	c #BFBFBF",
"c	c #650000",
"                    ",
"                    ",
"                    ",
"                    ",
"                    ",
"                    ",
"                    ",
"                    ",
"                    ",
"   .+@#      $%@&   ",
"  *=-@;>,   '=--)!~ ",
" {-~ ] ^/  {!~(  /$ ",
"    _:<(     [:<(   ",
"    <::_     }::|   ",
"    :::1     :::2   ",
"    3451     6457   ",
"    890[     ab5_   ",
"    c<2      c<a    ",
"                    ",
"                    "};
