/* XPM */
static char * twopoints_xpm[] = {
"6 17 2 1",
" 	c #FFFFFE",
".	c #FFFFFF",
"      ",
" .....",
" .....",
" .....",
" .....",
" .... ",
"      ",
"      ",
"      ",
"      ",
"      ",
"      ",
" .... ",
" .....",
" .....",
" .....",
" .... "};
